<?xml version="1.0" ?><svg id="Filled" viewBox="0 0 32 32" xmlns="http://www.w3.org/2000/svg"><title/><rect height="4" rx="1" style="fill:#f1f1f1;stroke:#000;stroke-linecap:round;stroke-linejoin:round;stroke-width:2px" width="9" x="5.25" y="6"/><path d="M12.75,13V10h-6v3l-1.219.813A4,4,0,0,0,3.75,17.141V28a2,2,0,0,0,2,2h8a2,2,0,0,0,2-2V17.141a4,4,0,0,0-1.781-3.328Z" style="fill:#53dcd0;stroke:#000;stroke-linecap:round;stroke-linejoin:round;stroke-width:2px;fill-rule:evenodd"/><rect height="8" style="fill:#f1f1f1;stroke:#000;stroke-linecap:round;stroke-linejoin:round;stroke-width:2px" width="12" x="3.75" y="18"/><line style="fill:none;stroke:#000;stroke-linecap:round;stroke-linejoin:round;stroke-width:2px" x1="7.75" x2="11.75" y1="22" y2="22"/><rect height="14" style="fill:#f1f1f1;stroke:#000;stroke-linecap:round;stroke-linejoin:round;stroke-width:2px" width="6" x="20.75" y="8"/><path d="M21.75,22h4a0,0,0,0,1,0,0v2a2,2,0,0,1-2,2h0a2,2,0,0,1-2-2V22A0,0,0,0,1,21.75,22Z" style="fill:#f1f1f1;stroke:#000;stroke-linecap:round;stroke-linejoin:round;stroke-width:2px"/><rect height="6" style="fill:#f1f1f1;stroke:#000;stroke-linecap:round;stroke-linejoin:round;stroke-width:2px" width="4" x="21.75" y="2"/><line style="fill:none;stroke:#000;stroke-linecap:round;stroke-linejoin:round;stroke-width:2px" x1="23.75" x2="23.75" y1="26" y2="30"/><line style="fill:none;stroke:#000;stroke-linecap:round;stroke-linejoin:round;stroke-width:2px" x1="19.25" x2="28.25" y1="8" y2="8"/><line style="fill:none;stroke:#000;stroke-linecap:round;stroke-linejoin:round;stroke-width:2px" x1="20.25" x2="27.25" y1="2" y2="2"/><rect height="10" style="fill:#f23c50;stroke:#000;stroke-linecap:round;stroke-linejoin:round;stroke-width:2px" width="6" x="20.75" y="12"/></svg>